<svg width="1734" height="895" viewBox="0 0 1734 895" fill="none" xmlns="http://www.w3.org/2000/svg">
<path d="M1734 0H0V895H1734V0Z" fill="#BFE878"/>
<path d="M62.9541 6.10352e-05H30.1348V894.62H62.9541V6.10352e-05Z" fill="#CDF28D" fill-opacity="0.6"/>
<path d="M128.59 6.10352e-05H95.7734V894.62H128.59V6.10352e-05Z" fill="#CDF28D" fill-opacity="0.6"/>
<path d="M194.227 6.10352e-05H161.41V894.62H194.227V6.10352e-05Z" fill="#CDF28D" fill-opacity="0.6"/>
<path d="M259.866 6.10352e-05H227.046V894.62H259.866V6.10352e-05Z" fill="#CDF28D" fill-opacity="0.6"/>
<path d="M325.504 6.10352e-05H292.685V894.62H325.504V6.10352e-05Z" fill="#CDF28D" fill-opacity="0.6"/>
<path d="M391.141 6.10352e-05H358.321V894.62H391.141V6.10352e-05Z" fill="#CDF28D" fill-opacity="0.6"/>
<path d="M456.777 6.10352e-05H423.96V894.62H456.777V6.10352e-05Z" fill="#CDF28D" fill-opacity="0.6"/>
<path d="M522.416 6.10352e-05H489.599V894.62H522.416V6.10352e-05Z" fill="#CDF28D" fill-opacity="0.6"/>
<path d="M588.052 6.10352e-05H555.232V894.62H588.052V6.10352e-05Z" fill="#CDF28D" fill-opacity="0.6"/>
<path d="M653.691 6.10352e-05H620.872V894.62H653.691V6.10352e-05Z" fill="#CDF28D" fill-opacity="0.6"/>
<path d="M719.327 6.10352e-05H686.51V894.62H719.327V6.10352e-05Z" fill="#CDF28D" fill-opacity="0.6"/>
<path d="M784.964 6.10352e-05H752.146V894.62H784.964V6.10352e-05Z" fill="#CDF28D" fill-opacity="0.6"/>
<path d="M850.602 6.10352e-05H817.785V894.62H850.602V6.10352e-05Z" fill="#CDF28D" fill-opacity="0.6"/>
<path d="M916.241 6.10352e-05H883.421V894.62H916.241V6.10352e-05Z" fill="#CDF28D" fill-opacity="0.6"/>
<path d="M981.875 6.10352e-05H949.058V894.62H981.875V6.10352e-05Z" fill="#CDF28D" fill-opacity="0.6"/>
<path d="M1047.51 6.10352e-05H1014.7V894.62H1047.51V6.10352e-05Z" fill="#CDF28D" fill-opacity="0.6"/>
<path d="M1113.15 6.10352e-05H1080.33V894.62H1113.15V6.10352e-05Z" fill="#CDF28D" fill-opacity="0.6"/>
<path d="M1178.79 6.10352e-05H1145.97V894.62H1178.79V6.10352e-05Z" fill="#CDF28D" fill-opacity="0.6"/>
<path d="M1244.43 6.10352e-05H1211.61V894.62H1244.43V6.10352e-05Z" fill="#CDF28D" fill-opacity="0.6"/>
<path d="M1310.06 6.10352e-05H1277.25V894.62H1310.06V6.10352e-05Z" fill="#CDF28D" fill-opacity="0.6"/>
<path d="M1375.7 6.10352e-05H1342.88V894.62H1375.7V6.10352e-05Z" fill="#CDF28D" fill-opacity="0.6"/>
<path d="M1441.34 6.10352e-05H1408.52V894.62H1441.34V6.10352e-05Z" fill="#CDF28D" fill-opacity="0.6"/>
<path d="M1506.97 6.10352e-05H1474.16V894.62H1506.97V6.10352e-05Z" fill="#CDF28D" fill-opacity="0.6"/>
<path d="M1572.61 6.10352e-05H1539.79V894.62H1572.61V6.10352e-05Z" fill="#CDF28D" fill-opacity="0.6"/>
<path d="M1638.25 6.10352e-05H1605.43V894.62H1638.25V6.10352e-05Z" fill="#CDF28D" fill-opacity="0.6"/>
<path d="M1703.89 6.10352e-05H1671.07V894.62H1703.89V6.10352e-05Z" fill="#CDF28D" fill-opacity="0.6"/>
</svg>
