<svg width="32" height="32" viewBox="0 0 32 32" fill="none" xmlns="http://www.w3.org/2000/svg">
<path d="M13.2787 10.8412H26.1055C27.5203 10.8412 28.6709 11.9918 28.6709 13.4066V26.2334C28.6709 27.6482 27.5203 28.7988 26.1055 28.7988H13.2787C11.8639 28.7988 10.7133 27.6482 10.7133 26.2334V13.4066C10.7133 11.9918 11.8639 10.8412 13.2787 10.8412Z" fill="#fff"/>
<path d="M5.58336 3.14508H18.4102C19.0906 3.14508 19.7431 3.41536 20.2242 3.89646C20.7053 4.37756 20.9756 5.03007 20.9756 5.71045V8.27582H10.7141C10.0337 8.27582 9.38121 8.5461 8.90011 9.0272C8.41901 9.5083 8.14873 10.1608 8.14873 10.8412V21.1027H5.58336C4.90298 21.1027 4.25047 20.8324 3.76937 20.3513C3.28827 19.8702 3.01799 19.2177 3.01799 18.5373V5.71045C3.01799 5.03007 3.28827 4.37756 3.76937 3.89646C4.25047 3.41536 4.90298 3.14508 5.58336 3.14508Z" fill="#fff"/>
</svg>
