<svg width="1740" height="135" viewBox="0 0 1740 135" fill="none" xmlns="http://www.w3.org/2000/svg">
<mask id="path-1-inside-1_304_753" fill="white">
<path d="M1738.78 116.141L1737.91 119.076L1738.34 121.59L1737.47 124.525L1735.73 127.46L1733.11 126.202L1730.5 127.879L1725.72 128.716L1721.37 129.437L1718.88 128.716H1714.41L1711.79 129.555L1714.41 126.202L1717.02 119.915L1714.84 120.334L1710.92 122.848L1707.87 125.783L1705.21 127.46C1705.21 127.46 1702.65 129.555 1701.78 129.974C1700.91 130.393 1672.19 128.716 1672.19 128.716L1669.15 129.437L1667.84 127.46L1664.79 125.783L1661.54 125.35L1659.57 123.686L1658.7 120.334L1657.83 122.848L1656.09 122.011H1653.48L1648.25 122.848L1646.96 125.364L1643.47 126.202L1629.98 130.393L1627.37 132.07L1626.69 130.812L1623.01 130.393L1619.1 130.812L1616.49 131.841L1614.75 129.974L1612.57 129.555L1610.4 129.974L1608.22 129.437H1607.35L1606.48 130.812H1604.31L1599.51 129.555L1586.9 124.944L1588.2 129.555L1585.59 130.393L1583.42 131.841L1580.37 132.07L1577.75 131.651L1573.4 129.974L1569.05 126.621L1566.88 123.686L1564.7 121.91L1563.4 119.915L1562.96 116.141L1565.14 114.045C1565.14 114.045 1565.14 112.369 1564.7 111.993C1564.27 109.854 1562.53 111.993 1562.53 111.993C1562.53 111.993 1561.86 111.993 1560.54 111.531C1559.48 111.95 1559.92 114.884 1559.92 114.884L1557.74 118.47L1556.43 122.848L1555.56 124.525L1550.78 126.202H1545.56L1533.37 127.039H1527.28L1505.08 125.364L1502.04 125.783L1501.17 125.35L1501.6 120.334L1499.86 119.495H1497.02C1497.02 119.495 1493.77 118.657 1493.34 119.495L1491.6 114.464L1491.15 109.854L1489.85 114.884L1489.41 119.495H1487.67C1487.67 119.495 1484.63 118.657 1483.76 118.657C1482.89 118.657 1480.28 120.753 1480.28 120.753L1477.67 125.35L1475.06 124.944L1472.45 125.783L1469.84 129.437L1467.22 129.137L1463.74 131.841L1460.85 132.909H1458.95L1457.65 129.974C1457.65 129.974 1457.65 127.879 1458.08 127.039C1458.12 128.012 1458.17 127.307 1458.21 126.829L1454.17 128.732L1447.2 131.383C1447.2 131.383 1438.93 132.909 1437.63 132.909C1436.32 132.909 1426.32 135.199 1425.44 134.435C1424.57 133.672 1420.66 133.672 1417.18 132.146C1413.7 130.619 1407.17 127.568 1407.17 127.568L1406.3 125.278C1406.3 125.278 1405.43 126.803 1404.99 126.803C1404.56 126.803 1397.59 126.041 1397.59 126.041L1391.94 125.278C1389.76 125.278 1389.33 122.225 1389.33 122.225L1388.46 125.278C1385.85 126.041 1383.67 126.041 1383.67 126.041H1381.05L1377.57 126.803L1373.66 127.568C1371.92 127.568 1372.35 126.803 1371.48 126.041C1371.48 126.041 1369.74 127.568 1368.87 127.568C1366.03 127.568 1363.13 128.25 1362.35 127.568C1361.48 126.803 1360.6 126.041 1360.6 126.041L1359.85 127.568C1355.38 127.568 1352.77 126.803 1352.77 126.803L1343.63 124.515L1338.84 122.989L1338.68 121.462V119.172L1337.36 117.894V124.515L1337.54 126.041C1338.84 127.568 1339.72 128.732 1339.72 128.732C1339.72 128.732 1320.57 132.146 1318.83 131.383C1317.09 130.619 1314.91 127.568 1314.91 127.568L1311.86 126.803L1307.51 127.568H1302.51L1298.37 129.093L1295.01 127.568H1287.93C1285.75 127.568 1284.01 126.041 1284.01 126.041L1277.49 125.278L1273.84 126.041H1271.4V122.225L1269.21 127.568L1267.47 129.093C1265.3 131.035 1266.34 129.093 1265.03 128.732C1263.99 127.568 1262.25 126.803 1262.25 126.803L1260.95 124.515L1257.9 123.752C1257.9 123.752 1258.77 126.041 1257.03 126.041C1255.29 126.041 1254.42 126.803 1254.42 126.803L1253.99 129.093C1250.07 131.035 1247.45 130.619 1246.58 131.035C1245.71 129.093 1242.65 129.47 1241.36 129.093C1238.75 128.732 1240.49 129.093 1238.75 128.732C1237.67 127.568 1233.97 129.093 1233.97 129.093H1225.69C1223.08 129.093 1221.78 131.035 1221.78 131.035C1221.78 131.035 1222.68 132.146 1220.91 132.146C1219.6 132.146 1217.86 132.909 1217.86 132.909C1213.51 131.383 1213.08 131.383 1213.08 131.383L1210.47 130.619V126.803C1210.47 126.803 1211.77 123.752 1210.9 124.515C1210.03 125.278 1208.73 128.732 1207.86 128.732C1206.99 128.732 1202.63 126.041 1201.5 125.278C1199.15 124.515 1197.84 126.041 1197.84 126.041L1196.1 127.568C1196.1 127.568 1188.27 122.225 1187.4 121.462C1186.53 120.699 1182.18 115.577 1182.18 115.577C1179.56 113.831 1179.02 110.778 1179.02 110.778C1179.02 110.778 1176.52 113.831 1176.95 115.577C1177.39 117.894 1177.39 117.647 1176.52 118.409C1175.65 119.172 1174.34 120.699 1174.34 120.699L1175.21 124.515L1175.65 127.568L1173.47 129.093L1169.99 130.619C1169.99 130.619 1166.08 131.035 1163.47 131.035H1156.94L1152.59 130.619H1146.93L1143.89 132.146C1140.84 131.383 1139.97 131.035 1139.97 131.035C1139.97 131.035 1139.97 131.383 1138.23 131.383C1136.48 131.383 1136.48 130.619 1135.35 130.619C1133.87 130.619 1131.7 131.035 1131.7 131.035H1125.82C1125.74 129.904 1125.67 129.944 1125.61 129.974C1125.01 130.262 1111.26 129.561 1102.71 129.093H1094.7L1094.6 128.463L1092.96 129.437L1091.99 127.46L1090.29 126.701L1089.05 127.568H1085.57L1079.48 128.732L1073.39 129.093H1070.51L1069.16 127.72C1069.34 127.981 1070.01 128.538 1068.59 129.093C1067.29 131.035 1065.98 131.035 1065.98 131.035H1063.02C1063.02 131.035 1059.92 129.681 1056.68 129.496L1053.8 130.393L1051.19 132.07L1049.89 130.812L1046.83 130.393L1042.92 130.812L1040.31 131.841L1038.57 129.974L1036.39 129.555L1034.35 129.974L1032.04 129.437H1031.17L1030.3 130.812H1028.13L1023.34 129.555L1010.72 124.944L1012.03 129.555L1009.42 130.393L1007.24 131.841L1004.19 132.07L1001.58 131.651L997.226 129.974L992.876 126.621L990.701 123.686L988.526 121.91L987.221 119.915L986.786 116.141L988.961 114.045C988.961 114.045 988.961 112.369 988.526 111.993C988.091 109.854 986.351 111.993 986.351 111.993C986.351 111.993 985.046 111.993 984.504 111.531C983.306 111.95 983.741 114.884 983.741 114.884L981.558 118.47L980.253 122.848L979.382 124.525L974.597 126.202H969.508L963.287 126.621L957.188 127.039H951.098L928.904 125.364L925.859 125.783L924.989 125.35L925.424 120.334L923.684 119.495H920.203C920.203 119.495 917.585 118.657 917.15 119.495L915.41 114.464L914.975 109.854L913.67 114.884L913.235 119.495H911.495C911.495 119.495 908.45 118.657 907.58 118.657C906.71 118.657 904.1 120.753 904.1 120.753L901.489 125.35L898.879 124.944L896.261 125.783L893.651 129.437L891.041 129.137L887.561 131.841L884.08 132.909H882.775L881.47 129.974C881.47 129.974 881.47 127.879 881.905 127.039C882.34 126.202 882.775 126.202 882.775 126.202C882.775 126.202 881.905 125.35 881.905 123.686C881.905 123.267 881.035 125.35 881.035 125.35H879.73L878.425 122.429L877.194 122.036L876.464 124.525L874.715 127.46L872.105 126.202L869.495 127.879L864.71 128.716L860.36 129.437L857.873 128.716H853.391L850.781 129.555L853.391 126.202L856.009 119.915L853.834 120.334L849.911 122.848L846.866 125.783L844.198 127.46C844.198 127.46 841.646 129.555 840.776 129.974C839.906 130.393 811.183 128.716 811.183 128.716L808.137 129.437L806.831 127.46L803.785 125.783L800.532 125.35L798.562 123.686L797.692 120.334L796.822 122.848L795.081 122.011H792.47L787.248 122.848L785.943 125.364L782.461 126.202L768.97 130.393L766.359 132.07L765.682 130.812L762.008 130.393L758.091 130.812L755.48 131.841L753.739 129.974L751.563 129.555L749.387 129.974L747.211 129.437H746.341L745.471 130.812H743.295L738.508 129.555L725.888 124.944L727.193 129.555L724.582 130.393L722.406 131.841L719.36 132.07L716.748 131.651L712.397 129.974L708.046 126.621L705.87 123.686L703.694 121.91L702.388 119.915L701.953 116.141L704.129 114.045C704.129 114.045 704.129 112.369 703.694 111.993C703.258 109.854 701.518 111.993 701.518 111.993C701.518 111.993 700.847 111.993 699.534 111.531C698.471 111.95 698.906 114.884 698.906 114.884L696.73 118.47L695.425 122.848L694.555 124.525L689.768 126.202H684.546L672.36 127.039H666.268L644.074 125.364L641.027 125.783L640.157 125.35L640.592 120.334L638.851 119.495H636.013C636.013 119.495 632.759 118.657 632.324 119.495L630.584 114.464L630.148 109.854L628.843 114.884L628.408 119.495H626.667C626.667 119.495 623.62 118.657 622.75 118.657C621.88 118.657 619.268 120.753 619.268 120.753L616.657 125.35L614.046 124.944L611.435 125.783L608.824 129.437L606.213 129.137L602.732 131.841L599.841 132.909H597.945L596.639 129.974C596.639 129.974 596.639 127.879 597.074 127.039C597.114 128.012 597.154 127.307 597.195 126.829L593.158 128.732L586.194 131.383C586.194 131.383 577.927 132.909 576.621 132.909C575.315 132.909 565.306 135.199 564.436 134.435C563.565 133.672 559.648 133.672 556.168 132.146C552.686 130.619 546.158 127.568 546.158 127.568L545.288 125.278C545.288 125.278 544.417 126.803 543.982 126.803C543.547 126.803 536.584 126.041 536.584 126.041L530.927 125.278C528.751 125.278 528.316 122.225 528.316 122.225L527.446 125.278C524.835 126.041 522.659 126.041 522.659 126.041H520.047L516.566 126.803L512.649 127.568C510.908 127.568 511.344 126.803 510.473 126.041C510.473 126.041 508.732 127.568 507.862 127.568C505.023 127.568 502.114 128.25 501.335 127.568C500.465 126.803 499.594 126.041 499.594 126.041L498.843 127.568C494.372 127.568 491.761 126.803 491.761 126.803L482.622 124.515L477.835 122.989L477.666 121.462V119.172L476.353 117.894V124.515L476.53 126.041C477.835 127.568 478.705 128.732 478.705 128.732C478.705 128.732 459.557 132.146 457.816 131.383C456.076 130.619 453.9 127.568 453.9 127.568L450.854 126.803L446.502 127.568H441.502L437.363 129.093L434 127.568H426.918C424.743 127.568 423.002 126.041 423.002 126.041L416.475 125.278L412.832 126.041H410.382V122.225L408.206 127.568L406.465 129.093C404.289 131.035 405.33 129.093 404.017 128.732C402.984 127.568 401.243 126.803 401.243 126.803L399.937 124.515L396.892 123.752C396.892 123.752 397.762 126.041 396.021 126.041C394.281 126.041 393.41 126.803 393.41 126.803L392.975 129.093C389.058 131.035 386.447 130.619 385.577 131.035C384.706 129.093 381.642 129.47 380.354 129.093C377.743 128.732 379.484 129.093 377.743 128.732C376.66 127.568 372.956 129.093 372.956 129.093H364.688C362.077 129.093 360.772 131.035 360.772 131.035C360.772 131.035 361.672 132.146 359.901 132.146C358.595 132.146 356.855 132.909 356.855 132.909C352.503 131.383 352.068 131.383 352.068 131.383L349.456 130.619V126.803C349.456 126.803 350.762 123.752 349.892 124.515C349.021 125.278 347.716 128.732 346.846 128.732C345.975 128.732 341.624 126.041 340.496 125.278C338.142 124.515 336.837 126.041 336.837 126.041L335.096 127.568C335.096 127.568 327.262 122.225 326.392 121.462C325.522 120.699 321.17 115.577 321.17 115.577C318.559 113.831 318.006 110.778 318.006 110.778C318.006 110.778 315.513 113.831 315.948 115.577C316.383 117.894 316.383 117.647 315.513 118.409C314.643 119.172 313.337 120.699 313.337 120.699L314.207 124.515L314.643 127.568L312.467 129.093L308.985 130.619C308.985 130.619 305.068 131.035 302.457 131.035H295.929L291.578 130.619H285.921L282.874 132.146C279.828 131.383 278.957 131.035 278.957 131.035C278.957 131.035 278.957 131.383 277.217 131.383C275.476 131.383 275.476 130.619 274.34 130.619C272.865 130.619 270.689 131.035 270.689 131.035H264.807C264.731 129.904 264.66 129.944 264.597 129.974C263.998 130.262 250.248 129.561 241.703 129.093H233.699L233.588 128.463L231.958 129.437L230.978 127.46L229.276 126.701L228.041 127.568H224.56L218.467 128.732L212.375 129.093H209.506L208.154 127.72C208.336 127.981 208.997 128.538 207.588 129.093C206.283 131.035 204.977 131.035 204.977 131.035H202.012C202.012 131.035 198.91 129.681 195.678 129.496L192.792 130.393L190.18 132.07L188.875 130.812L185.829 130.393L181.913 130.812L179.302 131.841L177.561 129.974L175.385 129.555L173.342 129.974L171.033 129.437H170.162L169.292 130.812H167.116L162.329 129.555L149.709 124.944L151.015 129.555L148.404 130.393L146.228 131.841L143.181 132.07L140.57 131.651L136.218 129.974L131.867 126.621L129.691 123.686L127.515 121.91L126.209 119.915L125.774 116.141L127.95 114.045C127.95 114.045 127.95 112.369 127.515 111.993C127.08 109.854 125.339 111.993 125.339 111.993C125.339 111.993 124.034 111.993 123.495 111.531C122.293 111.95 122.728 114.884 122.728 114.884L120.552 118.47L119.246 122.848L118.376 124.525L113.589 126.202H108.5L102.275 126.621L96.1819 127.039H90.0892L67.895 125.364L64.8491 125.783L63.9782 125.35L64.4141 120.334L62.6732 119.495H59.1914C59.1914 119.495 56.5805 118.657 56.1454 119.495L54.4045 114.464L53.9695 109.854L52.6636 114.884L52.2286 119.495H50.4877C50.4877 119.495 47.4418 118.657 46.5709 118.657C45.7009 118.657 43.0899 120.753 43.0899 120.753L40.479 125.35L37.8681 124.944L35.2563 125.783L32.6454 129.437L30.0345 129.137L26.5527 131.841L23.0717 132.909H21.7658L20.4608 129.974C20.4608 129.974 20.4608 127.879 20.8958 127.039C21.3308 126.202 21.7658 126.202 21.7658 126.202C21.7658 126.202 20.8958 125.35 20.8958 123.686C20.8958 123.267 20.0249 125.35 20.0249 125.35H18.7199L17.414 122.429L16.1089 122.011L13.498 123.267L10.0162 120.334L6.0994 118.47C6.0994 118.47 -0.247768 117.174 0.00749819 116.581C0.250452 116.347 0.00749819 0 0.00749819 0H1483.32L1739.65 0.132417V113.208L1738.78 116.141Z"/>
</mask>
<path d="M1738.78 116.141L1737.91 119.076L1738.34 121.59L1737.47 124.525L1735.73 127.46L1733.11 126.202L1730.5 127.879L1725.72 128.716L1721.37 129.437L1718.88 128.716H1714.41L1711.79 129.555L1714.41 126.202L1717.02 119.915L1714.84 120.334L1710.92 122.848L1707.87 125.783L1705.21 127.46C1705.21 127.46 1702.65 129.555 1701.78 129.974C1700.91 130.393 1672.19 128.716 1672.19 128.716L1669.15 129.437L1667.84 127.46L1664.79 125.783L1661.54 125.35L1659.57 123.686L1658.7 120.334L1657.83 122.848L1656.09 122.011H1653.48L1648.25 122.848L1646.96 125.364L1643.47 126.202L1629.98 130.393L1627.37 132.07L1626.69 130.812L1623.01 130.393L1619.1 130.812L1616.49 131.841L1614.75 129.974L1612.57 129.555L1610.4 129.974L1608.22 129.437H1607.35L1606.48 130.812H1604.31L1599.51 129.555L1586.9 124.944L1588.2 129.555L1585.59 130.393L1583.42 131.841L1580.37 132.07L1577.75 131.651L1573.4 129.974L1569.05 126.621L1566.88 123.686L1564.7 121.91L1563.4 119.915L1562.96 116.141L1565.14 114.045C1565.14 114.045 1565.14 112.369 1564.7 111.993C1564.27 109.854 1562.53 111.993 1562.53 111.993C1562.53 111.993 1561.86 111.993 1560.54 111.531C1559.48 111.95 1559.92 114.884 1559.92 114.884L1557.74 118.47L1556.43 122.848L1555.56 124.525L1550.78 126.202H1545.56L1533.37 127.039H1527.28L1505.08 125.364L1502.04 125.783L1501.17 125.35L1501.6 120.334L1499.86 119.495H1497.02C1497.02 119.495 1493.77 118.657 1493.34 119.495L1491.6 114.464L1491.15 109.854L1489.85 114.884L1489.41 119.495H1487.67C1487.67 119.495 1484.63 118.657 1483.76 118.657C1482.89 118.657 1480.28 120.753 1480.28 120.753L1477.67 125.35L1475.06 124.944L1472.45 125.783L1469.84 129.437L1467.22 129.137L1463.74 131.841L1460.85 132.909H1458.95L1457.65 129.974C1457.65 129.974 1457.65 127.879 1458.08 127.039C1458.12 128.012 1458.17 127.307 1458.21 126.829L1454.17 128.732L1447.2 131.383C1447.2 131.383 1438.93 132.909 1437.63 132.909C1436.32 132.909 1426.32 135.199 1425.44 134.435C1424.57 133.672 1420.66 133.672 1417.18 132.146C1413.7 130.619 1407.17 127.568 1407.17 127.568L1406.3 125.278C1406.3 125.278 1405.43 126.803 1404.99 126.803C1404.56 126.803 1397.59 126.041 1397.59 126.041L1391.94 125.278C1389.76 125.278 1389.33 122.225 1389.33 122.225L1388.46 125.278C1385.85 126.041 1383.67 126.041 1383.67 126.041H1381.05L1377.57 126.803L1373.66 127.568C1371.92 127.568 1372.35 126.803 1371.48 126.041C1371.48 126.041 1369.74 127.568 1368.87 127.568C1366.03 127.568 1363.13 128.25 1362.35 127.568C1361.48 126.803 1360.6 126.041 1360.6 126.041L1359.85 127.568C1355.38 127.568 1352.77 126.803 1352.77 126.803L1343.63 124.515L1338.84 122.989L1338.68 121.462V119.172L1337.36 117.894V124.515L1337.54 126.041C1338.84 127.568 1339.72 128.732 1339.72 128.732C1339.72 128.732 1320.57 132.146 1318.83 131.383C1317.09 130.619 1314.91 127.568 1314.91 127.568L1311.86 126.803L1307.51 127.568H1302.51L1298.37 129.093L1295.01 127.568H1287.93C1285.75 127.568 1284.01 126.041 1284.01 126.041L1277.49 125.278L1273.84 126.041H1271.4V122.225L1269.21 127.568L1267.47 129.093C1265.3 131.035 1266.34 129.093 1265.03 128.732C1263.99 127.568 1262.25 126.803 1262.25 126.803L1260.95 124.515L1257.9 123.752C1257.9 123.752 1258.77 126.041 1257.03 126.041C1255.29 126.041 1254.42 126.803 1254.42 126.803L1253.99 129.093C1250.07 131.035 1247.45 130.619 1246.58 131.035C1245.71 129.093 1242.65 129.47 1241.36 129.093C1238.75 128.732 1240.49 129.093 1238.75 128.732C1237.67 127.568 1233.97 129.093 1233.97 129.093H1225.69C1223.08 129.093 1221.78 131.035 1221.78 131.035C1221.78 131.035 1222.68 132.146 1220.91 132.146C1219.6 132.146 1217.86 132.909 1217.86 132.909C1213.51 131.383 1213.08 131.383 1213.08 131.383L1210.47 130.619V126.803C1210.47 126.803 1211.77 123.752 1210.9 124.515C1210.03 125.278 1208.73 128.732 1207.86 128.732C1206.99 128.732 1202.63 126.041 1201.5 125.278C1199.15 124.515 1197.84 126.041 1197.84 126.041L1196.1 127.568C1196.1 127.568 1188.27 122.225 1187.4 121.462C1186.53 120.699 1182.18 115.577 1182.18 115.577C1179.56 113.831 1179.02 110.778 1179.02 110.778C1179.02 110.778 1176.52 113.831 1176.95 115.577C1177.39 117.894 1177.39 117.647 1176.52 118.409C1175.65 119.172 1174.34 120.699 1174.34 120.699L1175.21 124.515L1175.65 127.568L1173.47 129.093L1169.99 130.619C1169.99 130.619 1166.08 131.035 1163.47 131.035H1156.94L1152.59 130.619H1146.93L1143.89 132.146C1140.84 131.383 1139.97 131.035 1139.97 131.035C1139.97 131.035 1139.97 131.383 1138.23 131.383C1136.48 131.383 1136.48 130.619 1135.35 130.619C1133.87 130.619 1131.7 131.035 1131.7 131.035H1125.82C1125.74 129.904 1125.67 129.944 1125.61 129.974C1125.01 130.262 1111.26 129.561 1102.71 129.093H1094.7L1094.6 128.463L1092.96 129.437L1091.99 127.46L1090.29 126.701L1089.05 127.568H1085.57L1079.48 128.732L1073.39 129.093H1070.51L1069.16 127.72C1069.34 127.981 1070.01 128.538 1068.59 129.093C1067.29 131.035 1065.98 131.035 1065.98 131.035H1063.02C1063.02 131.035 1059.92 129.681 1056.68 129.496L1053.8 130.393L1051.19 132.07L1049.89 130.812L1046.83 130.393L1042.92 130.812L1040.31 131.841L1038.57 129.974L1036.39 129.555L1034.35 129.974L1032.04 129.437H1031.17L1030.3 130.812H1028.13L1023.34 129.555L1010.72 124.944L1012.03 129.555L1009.42 130.393L1007.24 131.841L1004.19 132.07L1001.58 131.651L997.226 129.974L992.876 126.621L990.701 123.686L988.526 121.91L987.221 119.915L986.786 116.141L988.961 114.045C988.961 114.045 988.961 112.369 988.526 111.993C988.091 109.854 986.351 111.993 986.351 111.993C986.351 111.993 985.046 111.993 984.504 111.531C983.306 111.95 983.741 114.884 983.741 114.884L981.558 118.47L980.253 122.848L979.382 124.525L974.597 126.202H969.508L963.287 126.621L957.188 127.039H951.098L928.904 125.364L925.859 125.783L924.989 125.35L925.424 120.334L923.684 119.495H920.203C920.203 119.495 917.585 118.657 917.15 119.495L915.41 114.464L914.975 109.854L913.67 114.884L913.235 119.495H911.495C911.495 119.495 908.45 118.657 907.58 118.657C906.71 118.657 904.1 120.753 904.1 120.753L901.489 125.35L898.879 124.944L896.261 125.783L893.651 129.437L891.041 129.137L887.561 131.841L884.08 132.909H882.775L881.47 129.974C881.47 129.974 881.47 127.879 881.905 127.039C882.34 126.202 882.775 126.202 882.775 126.202C882.775 126.202 881.905 125.35 881.905 123.686C881.905 123.267 881.035 125.35 881.035 125.35H879.73L878.425 122.429L877.194 122.036L876.464 124.525L874.715 127.46L872.105 126.202L869.495 127.879L864.71 128.716L860.36 129.437L857.873 128.716H853.391L850.781 129.555L853.391 126.202L856.009 119.915L853.834 120.334L849.911 122.848L846.866 125.783L844.198 127.46C844.198 127.46 841.646 129.555 840.776 129.974C839.906 130.393 811.183 128.716 811.183 128.716L808.137 129.437L806.831 127.46L803.785 125.783L800.532 125.35L798.562 123.686L797.692 120.334L796.822 122.848L795.081 122.011H792.47L787.248 122.848L785.943 125.364L782.461 126.202L768.97 130.393L766.359 132.07L765.682 130.812L762.008 130.393L758.091 130.812L755.48 131.841L753.739 129.974L751.563 129.555L749.387 129.974L747.211 129.437H746.341L745.471 130.812H743.295L738.508 129.555L725.888 124.944L727.193 129.555L724.582 130.393L722.406 131.841L719.36 132.07L716.748 131.651L712.397 129.974L708.046 126.621L705.87 123.686L703.694 121.91L702.388 119.915L701.953 116.141L704.129 114.045C704.129 114.045 704.129 112.369 703.694 111.993C703.258 109.854 701.518 111.993 701.518 111.993C701.518 111.993 700.847 111.993 699.534 111.531C698.471 111.95 698.906 114.884 698.906 114.884L696.73 118.47L695.425 122.848L694.555 124.525L689.768 126.202H684.546L672.36 127.039H666.268L644.074 125.364L641.027 125.783L640.157 125.35L640.592 120.334L638.851 119.495H636.013C636.013 119.495 632.759 118.657 632.324 119.495L630.584 114.464L630.148 109.854L628.843 114.884L628.408 119.495H626.667C626.667 119.495 623.62 118.657 622.75 118.657C621.88 118.657 619.268 120.753 619.268 120.753L616.657 125.35L614.046 124.944L611.435 125.783L608.824 129.437L606.213 129.137L602.732 131.841L599.841 132.909H597.945L596.639 129.974C596.639 129.974 596.639 127.879 597.074 127.039C597.114 128.012 597.154 127.307 597.195 126.829L593.158 128.732L586.194 131.383C586.194 131.383 577.927 132.909 576.621 132.909C575.315 132.909 565.306 135.199 564.436 134.435C563.565 133.672 559.648 133.672 556.168 132.146C552.686 130.619 546.158 127.568 546.158 127.568L545.288 125.278C545.288 125.278 544.417 126.803 543.982 126.803C543.547 126.803 536.584 126.041 536.584 126.041L530.927 125.278C528.751 125.278 528.316 122.225 528.316 122.225L527.446 125.278C524.835 126.041 522.659 126.041 522.659 126.041H520.047L516.566 126.803L512.649 127.568C510.908 127.568 511.344 126.803 510.473 126.041C510.473 126.041 508.732 127.568 507.862 127.568C505.023 127.568 502.114 128.25 501.335 127.568C500.465 126.803 499.594 126.041 499.594 126.041L498.843 127.568C494.372 127.568 491.761 126.803 491.761 126.803L482.622 124.515L477.835 122.989L477.666 121.462V119.172L476.353 117.894V124.515L476.53 126.041C477.835 127.568 478.705 128.732 478.705 128.732C478.705 128.732 459.557 132.146 457.816 131.383C456.076 130.619 453.9 127.568 453.9 127.568L450.854 126.803L446.502 127.568H441.502L437.363 129.093L434 127.568H426.918C424.743 127.568 423.002 126.041 423.002 126.041L416.475 125.278L412.832 126.041H410.382V122.225L408.206 127.568L406.465 129.093C404.289 131.035 405.33 129.093 404.017 128.732C402.984 127.568 401.243 126.803 401.243 126.803L399.937 124.515L396.892 123.752C396.892 123.752 397.762 126.041 396.021 126.041C394.281 126.041 393.41 126.803 393.41 126.803L392.975 129.093C389.058 131.035 386.447 130.619 385.577 131.035C384.706 129.093 381.642 129.47 380.354 129.093C377.743 128.732 379.484 129.093 377.743 128.732C376.66 127.568 372.956 129.093 372.956 129.093H364.688C362.077 129.093 360.772 131.035 360.772 131.035C360.772 131.035 361.672 132.146 359.901 132.146C358.595 132.146 356.855 132.909 356.855 132.909C352.503 131.383 352.068 131.383 352.068 131.383L349.456 130.619V126.803C349.456 126.803 350.762 123.752 349.892 124.515C349.021 125.278 347.716 128.732 346.846 128.732C345.975 128.732 341.624 126.041 340.496 125.278C338.142 124.515 336.837 126.041 336.837 126.041L335.096 127.568C335.096 127.568 327.262 122.225 326.392 121.462C325.522 120.699 321.17 115.577 321.17 115.577C318.559 113.831 318.006 110.778 318.006 110.778C318.006 110.778 315.513 113.831 315.948 115.577C316.383 117.894 316.383 117.647 315.513 118.409C314.643 119.172 313.337 120.699 313.337 120.699L314.207 124.515L314.643 127.568L312.467 129.093L308.985 130.619C308.985 130.619 305.068 131.035 302.457 131.035H295.929L291.578 130.619H285.921L282.874 132.146C279.828 131.383 278.957 131.035 278.957 131.035C278.957 131.035 278.957 131.383 277.217 131.383C275.476 131.383 275.476 130.619 274.34 130.619C272.865 130.619 270.689 131.035 270.689 131.035H264.807C264.731 129.904 264.66 129.944 264.597 129.974C263.998 130.262 250.248 129.561 241.703 129.093H233.699L233.588 128.463L231.958 129.437L230.978 127.46L229.276 126.701L228.041 127.568H224.56L218.467 128.732L212.375 129.093H209.506L208.154 127.72C208.336 127.981 208.997 128.538 207.588 129.093C206.283 131.035 204.977 131.035 204.977 131.035H202.012C202.012 131.035 198.91 129.681 195.678 129.496L192.792 130.393L190.18 132.07L188.875 130.812L185.829 130.393L181.913 130.812L179.302 131.841L177.561 129.974L175.385 129.555L173.342 129.974L171.033 129.437H170.162L169.292 130.812H167.116L162.329 129.555L149.709 124.944L151.015 129.555L148.404 130.393L146.228 131.841L143.181 132.07L140.57 131.651L136.218 129.974L131.867 126.621L129.691 123.686L127.515 121.91L126.209 119.915L125.774 116.141L127.95 114.045C127.95 114.045 127.95 112.369 127.515 111.993C127.08 109.854 125.339 111.993 125.339 111.993C125.339 111.993 124.034 111.993 123.495 111.531C122.293 111.95 122.728 114.884 122.728 114.884L120.552 118.47L119.246 122.848L118.376 124.525L113.589 126.202H108.5L102.275 126.621L96.1819 127.039H90.0892L67.895 125.364L64.8491 125.783L63.9782 125.35L64.4141 120.334L62.6732 119.495H59.1914C59.1914 119.495 56.5805 118.657 56.1454 119.495L54.4045 114.464L53.9695 109.854L52.6636 114.884L52.2286 119.495H50.4877C50.4877 119.495 47.4418 118.657 46.5709 118.657C45.7009 118.657 43.0899 120.753 43.0899 120.753L40.479 125.35L37.8681 124.944L35.2563 125.783L32.6454 129.437L30.0345 129.137L26.5527 131.841L23.0717 132.909H21.7658L20.4608 129.974C20.4608 129.974 20.4608 127.879 20.8958 127.039C21.3308 126.202 21.7658 126.202 21.7658 126.202C21.7658 126.202 20.8958 125.35 20.8958 123.686C20.8958 123.267 20.0249 125.35 20.0249 125.35H18.7199L17.414 122.429L16.1089 122.011L13.498 123.267L10.0162 120.334L6.0994 118.47C6.0994 118.47 -0.247768 117.174 0.00749819 116.581C0.250452 116.347 0.00749819 0 0.00749819 0H1483.32L1739.65 0.132417V113.208L1738.78 116.141Z" fill="#F4E0AA" stroke="#F5765E" stroke-width="4" mask="url(#path-1-inside-1_304_753)"/>
</svg>
