<svg width="28" height="29" viewBox="0 0 28 29" fill="none" xmlns="http://www.w3.org/2000/svg">
<path fill-rule="evenodd" clip-rule="evenodd" d="M25.1444 0.943322C26.6357 0.20832 28.2345 1.68441 27.9711 3.55323L24.861 25.6267C24.561 27.7551 22.564 28.9763 20.8958 27.9157C19.5 27.0282 17.429 25.6622 15.5624 24.2346C14.6304 23.5217 11.7765 21.2359 12.1273 19.6087C12.4273 18.2173 17.2249 12.9899 19.9666 9.881C21.0435 8.65982 20.553 7.95433 19.2812 9.07872C16.1261 11.8679 11.0607 16.1087 9.38566 17.3021C7.90775 18.355 7.13609 18.5347 6.21566 18.355C4.53488 18.0272 2.97658 17.5195 1.70435 16.9022C-0.0151475 16.0679 0.0686086 13.3019 1.70319 12.4964L25.1444 0.943322Z" fill="#0B0101"/>
</svg>
