<svg width="38" height="877" viewBox="0 0 38 877" fill="none" xmlns="http://www.w3.org/2000/svg">
<path d="M17.2322 876.268C18.2085 877.244 19.7915 877.244 20.7678 876.268L36.6777 860.358C37.654 859.382 37.654 857.799 36.6777 856.822C35.7014 855.846 34.1184 855.846 33.1421 856.822L19 870.964L4.85786 856.822C3.88155 855.846 2.29864 855.846 1.32233 856.822C0.34602 857.799 0.34602 859.382 1.32233 860.358L17.2322 876.268ZM19 0.5H16.5V5.46591H19H21.5V0.5H19ZM19 15.3977H16.5V25.3295H19H21.5V15.3977H19ZM19 35.2614H16.5V45.1932H19H21.5V35.2614H19ZM19 55.125H16.5V65.0568H19H21.5V55.125H19ZM19 74.9886H16.5V84.9204H19H21.5V74.9886H19ZM19 94.8523H16.5V104.784H19H21.5V94.8523H19ZM19 114.716H16.5V124.648H19H21.5V114.716H19ZM19 134.58H16.5V144.511H19H21.5V134.58H19ZM19 154.443H16.5V164.375H19H21.5V154.443H19ZM19 174.307H16.5V184.239H19H21.5V174.307H19ZM19 194.17H16.5V204.102H19H21.5V194.17H19ZM19 214.034H16.5V223.966H19H21.5V214.034H19ZM19 233.898H16.5V243.83H19H21.5V233.898H19ZM19 253.761H16.5V263.693H19H21.5V253.761H19ZM19 273.625H16.5V283.557H19H21.5V273.625H19ZM19 293.489H16.5V303.421H19H21.5V293.489H19ZM19 313.352H16.5V323.284H19H21.5V313.352H19ZM19 333.216H16.5V343.148H19H21.5V333.216H19ZM19 353.08H16.5V363.011H19H21.5V353.08H19ZM19 372.943H16.5V382.875H19H21.5V372.943H19ZM19 392.807H16.5V402.739H19H21.5V392.807H19ZM19 412.671H16.5V422.602H19H21.5V412.671H19ZM19 432.534H16.5V442.466H19H21.5V432.534H19ZM19 452.398H16.5V462.33H19H21.5V452.398H19ZM19 472.262H16.5V482.193H19H21.5V472.262H19ZM19 492.125H16.5V502.057H19H21.5V492.125H19ZM19 511.989H16.5V521.921H19H21.5V511.989H19ZM19 531.852H16.5V541.784H19H21.5V531.852H19ZM19 551.716H16.5V561.648H19H21.5V551.716H19ZM19 571.58H16.5V581.512H19H21.5V571.58H19ZM19 591.443H16.5V601.375H19H21.5V591.443H19ZM19 611.307H16.5V621.239H19H21.5V611.307H19ZM19 631.171H16.5V641.103H19H21.5V631.171H19ZM19 651.034H16.5V660.966H19H21.5V651.034H19ZM19 670.898H16.5V680.83H19H21.5V670.898H19ZM19 690.762H16.5V700.694H19H21.5V690.762H19ZM19 710.625H16.5V720.557H19H21.5V710.625H19ZM19 730.489H16.5V740.421H19H21.5V730.489H19ZM19 750.353H16.5V760.284H19H21.5V750.353H19ZM19 770.216H16.5V780.148H19H21.5V770.216H19ZM19 790.08H16.5V800.012H19H21.5V790.08H19ZM19 809.944H16.5V819.875H19H21.5V809.944H19ZM19 829.807H16.5V839.739H19H21.5V829.807H19ZM19 849.671H16.5V859.603H19H21.5V849.671H19ZM19 869.534H16.5V874.5H19H21.5V869.534H19Z" fill="black"/>
</svg>
